<mxfile host="app.diagrams.net" modified="2021-02-16T12:05:39.846Z" agent="5.0 (Windows)" etag="FyRSyR19JEe0NKn2iTM-" version="13.9.7" type="github">
  <diagram id="ioYlywDVT_DXw8jL-yqH" name="Page-1">
    <mxGraphModel dx="835" dy="1151" grid="1" gridSize="10" guides="1" tooltips="1" connect="1" arrows="1" fold="1" page="1" pageScale="1" pageWidth="1654" pageHeight="1169" math="0" shadow="0">
      <root>
        <mxCell id="0" />
        <mxCell id="1" parent="0" />
        <mxCell id="7EeK4vwTGCE58HYFXyhD-3" style="edgeStyle=orthogonalEdgeStyle;rounded=0;orthogonalLoop=1;jettySize=auto;html=1;entryX=0.5;entryY=0;entryDx=0;entryDy=0;sketch=1;shadow=1;labelBackgroundColor=#ffffff;fontSize=13;" edge="1" parent="1" source="7EeK4vwTGCE58HYFXyhD-1" target="7EeK4vwTGCE58HYFXyhD-2">
          <mxGeometry relative="1" as="geometry" />
        </mxCell>
        <mxCell id="7EeK4vwTGCE58HYFXyhD-5" style="edgeStyle=orthogonalEdgeStyle;rounded=0;orthogonalLoop=1;jettySize=auto;html=1;entryX=0.5;entryY=0;entryDx=0;entryDy=0;sketch=1;shadow=1;labelBackgroundColor=#ffffff;fontSize=13;" edge="1" parent="1" source="7EeK4vwTGCE58HYFXyhD-1" target="7EeK4vwTGCE58HYFXyhD-4">
          <mxGeometry relative="1" as="geometry" />
        </mxCell>
        <mxCell id="7EeK4vwTGCE58HYFXyhD-1" value="&lt;span style=&quot;font-size: 13px;&quot;&gt;&lt;font style=&quot;font-size: 13px;&quot;&gt;My Place&lt;/font&gt;&lt;/span&gt;" style="rhombus;whiteSpace=wrap;html=1;fillColor=#1A1A1A;sketch=1;shadow=1;labelBackgroundColor=#ffffff;fontSize=13;" vertex="1" parent="1">
          <mxGeometry x="310" y="80" width="170" height="80" as="geometry" />
        </mxCell>
        <mxCell id="7EeK4vwTGCE58HYFXyhD-7" style="edgeStyle=orthogonalEdgeStyle;rounded=0;orthogonalLoop=1;jettySize=auto;html=1;entryX=0.25;entryY=0;entryDx=0;entryDy=0;sketch=1;shadow=1;labelBackgroundColor=#ffffff;fontSize=13;" edge="1" parent="1" source="7EeK4vwTGCE58HYFXyhD-2" target="7EeK4vwTGCE58HYFXyhD-6">
          <mxGeometry relative="1" as="geometry" />
        </mxCell>
        <mxCell id="7EeK4vwTGCE58HYFXyhD-2" value="&lt;font style=&quot;font-size: 13px;&quot;&gt;Find Key&lt;/font&gt;" style="rounded=1;whiteSpace=wrap;html=1;labelBackgroundColor=#ffffff;fillColor=#000066;sketch=1;shadow=1;fontSize=13;" vertex="1" parent="1">
          <mxGeometry x="150" y="250" width="120" height="60" as="geometry" />
        </mxCell>
        <mxCell id="7EeK4vwTGCE58HYFXyhD-8" style="edgeStyle=orthogonalEdgeStyle;rounded=0;orthogonalLoop=1;jettySize=auto;html=1;entryX=0.75;entryY=0;entryDx=0;entryDy=0;sketch=1;shadow=1;labelBackgroundColor=#ffffff;fontSize=13;" edge="1" parent="1" source="7EeK4vwTGCE58HYFXyhD-4" target="7EeK4vwTGCE58HYFXyhD-6">
          <mxGeometry relative="1" as="geometry" />
        </mxCell>
        <mxCell id="7EeK4vwTGCE58HYFXyhD-11" style="edgeStyle=orthogonalEdgeStyle;rounded=0;orthogonalLoop=1;jettySize=auto;html=1;sketch=1;shadow=1;labelBackgroundColor=#ffffff;fontSize=13;" edge="1" parent="1" source="7EeK4vwTGCE58HYFXyhD-4" target="7EeK4vwTGCE58HYFXyhD-10">
          <mxGeometry relative="1" as="geometry" />
        </mxCell>
        <mxCell id="7EeK4vwTGCE58HYFXyhD-4" value="&lt;font style=&quot;font-size: 13px;&quot;&gt;Find Door&lt;/font&gt;" style="rounded=1;whiteSpace=wrap;html=1;fillColor=#000066;sketch=1;shadow=1;labelBackgroundColor=#ffffff;fontSize=13;" vertex="1" parent="1">
          <mxGeometry x="540" y="250" width="120" height="60" as="geometry" />
        </mxCell>
        <mxCell id="7EeK4vwTGCE58HYFXyhD-18" style="edgeStyle=orthogonalEdgeStyle;rounded=0;orthogonalLoop=1;jettySize=auto;html=1;entryX=0.5;entryY=0;entryDx=0;entryDy=0;sketch=1;shadow=1;labelBackgroundColor=#ffffff;fontSize=13;" edge="1" parent="1" source="7EeK4vwTGCE58HYFXyhD-6" target="7EeK4vwTGCE58HYFXyhD-17">
          <mxGeometry relative="1" as="geometry" />
        </mxCell>
        <mxCell id="7EeK4vwTGCE58HYFXyhD-6" value="&lt;font style=&quot;font-size: 13px;&quot;&gt;Open Door&lt;br style=&quot;font-size: 13px;&quot;&gt;&lt;/font&gt;" style="rounded=1;whiteSpace=wrap;html=1;labelBackgroundColor=#ffffff;fillColor=#006633;sketch=1;shadow=1;fontSize=13;" vertex="1" parent="1">
          <mxGeometry x="335" y="440" width="120" height="60" as="geometry" />
        </mxCell>
        <mxCell id="7EeK4vwTGCE58HYFXyhD-23" style="edgeStyle=orthogonalEdgeStyle;rounded=0;orthogonalLoop=1;jettySize=auto;html=1;entryX=1;entryY=0.5;entryDx=0;entryDy=0;sketch=1;shadow=1;labelBackgroundColor=#ffffff;fontSize=13;" edge="1" parent="1" source="7EeK4vwTGCE58HYFXyhD-9" target="7EeK4vwTGCE58HYFXyhD-21">
          <mxGeometry relative="1" as="geometry" />
        </mxCell>
        <mxCell id="7EeK4vwTGCE58HYFXyhD-9" value="&lt;font style=&quot;font-size: 13px;&quot;&gt;Look Through Keyhole&lt;br style=&quot;font-size: 13px;&quot;&gt;&lt;/font&gt;" style="rounded=1;whiteSpace=wrap;html=1;labelBackgroundColor=#ffffff;fillColor=#006633;sketch=1;shadow=1;fontSize=13;" vertex="1" parent="1">
          <mxGeometry x="540" y="765" width="120" height="70" as="geometry" />
        </mxCell>
        <mxCell id="7EeK4vwTGCE58HYFXyhD-13" style="edgeStyle=orthogonalEdgeStyle;rounded=0;orthogonalLoop=1;jettySize=auto;html=1;entryX=0.5;entryY=0;entryDx=0;entryDy=0;sketch=1;shadow=1;labelBackgroundColor=#ffffff;fontSize=13;" edge="1" parent="1" source="7EeK4vwTGCE58HYFXyhD-10" target="7EeK4vwTGCE58HYFXyhD-12">
          <mxGeometry relative="1" as="geometry" />
        </mxCell>
        <mxCell id="7EeK4vwTGCE58HYFXyhD-10" value="&lt;font style=&quot;font-size: 13px;&quot;&gt;Examine Door&lt;/font&gt;" style="rounded=1;whiteSpace=wrap;html=1;fillColor=#006633;sketch=1;shadow=1;labelBackgroundColor=#ffffff;fontSize=13;" vertex="1" parent="1">
          <mxGeometry x="540" y="440" width="120" height="60" as="geometry" />
        </mxCell>
        <mxCell id="7EeK4vwTGCE58HYFXyhD-14" style="edgeStyle=orthogonalEdgeStyle;rounded=0;orthogonalLoop=1;jettySize=auto;html=1;entryX=0.5;entryY=0;entryDx=0;entryDy=0;sketch=1;shadow=1;labelBackgroundColor=#ffffff;fontSize=13;" edge="1" parent="1" source="7EeK4vwTGCE58HYFXyhD-12" target="7EeK4vwTGCE58HYFXyhD-9">
          <mxGeometry relative="1" as="geometry" />
        </mxCell>
        <mxCell id="7EeK4vwTGCE58HYFXyhD-12" value="&lt;font style=&quot;font-size: 13px;&quot;&gt;Find Keyhole&lt;/font&gt;" style="rounded=1;whiteSpace=wrap;html=1;fillColor=#000066;sketch=1;shadow=1;labelBackgroundColor=#ffffff;fontSize=13;" vertex="1" parent="1">
          <mxGeometry x="540" y="600" width="120" height="60" as="geometry" />
        </mxCell>
        <mxCell id="7EeK4vwTGCE58HYFXyhD-25" style="edgeStyle=orthogonalEdgeStyle;rounded=0;orthogonalLoop=1;jettySize=auto;html=1;sketch=1;shadow=1;labelBackgroundColor=#ffffff;fontSize=13;" edge="1" parent="1" source="7EeK4vwTGCE58HYFXyhD-15" target="7EeK4vwTGCE58HYFXyhD-24">
          <mxGeometry relative="1" as="geometry" />
        </mxCell>
        <mxCell id="7EeK4vwTGCE58HYFXyhD-15" value="&lt;font style=&quot;font-size: 13px;&quot;&gt;&lt;span style=&quot;font-size: 13px;&quot;&gt;&lt;font style=&quot;font-size: 13px;&quot;&gt;&lt;font style=&quot;font-size: 13px;&quot;&gt;Fictional Living Room&lt;/font&gt;&lt;br style=&quot;font-size: 13px;&quot;&gt;&lt;/font&gt;&lt;/span&gt;&lt;/font&gt;" style="rhombus;whiteSpace=wrap;html=1;fillColor=#1A1A1A;sketch=1;shadow=1;labelBackgroundColor=#ffffff;fontSize=13;" vertex="1" parent="1">
          <mxGeometry x="110" y="760" width="170" height="80" as="geometry" />
        </mxCell>
        <mxCell id="7EeK4vwTGCE58HYFXyhD-19" style="edgeStyle=orthogonalEdgeStyle;rounded=0;orthogonalLoop=1;jettySize=auto;html=1;entryX=0.5;entryY=0;entryDx=0;entryDy=0;sketch=1;shadow=1;labelBackgroundColor=#ffffff;fontSize=13;" edge="1" parent="1" source="7EeK4vwTGCE58HYFXyhD-17" target="7EeK4vwTGCE58HYFXyhD-15">
          <mxGeometry relative="1" as="geometry" />
        </mxCell>
        <mxCell id="7EeK4vwTGCE58HYFXyhD-17" value="&lt;font style=&quot;font-size: 13px;&quot;&gt;Go Through Door&lt;br style=&quot;font-size: 13px;&quot;&gt;&lt;/font&gt;" style="rounded=1;whiteSpace=wrap;html=1;labelBackgroundColor=#ffffff;fillColor=#006633;sketch=1;shadow=1;fontSize=13;" vertex="1" parent="1">
          <mxGeometry x="335" y="600" width="120" height="60" as="geometry" />
        </mxCell>
        <mxCell id="7EeK4vwTGCE58HYFXyhD-21" value="&lt;font style=&quot;font-size: 13px;&quot;&gt;&lt;span style=&quot;font-size: 13px;&quot;&gt;&lt;font style=&quot;font-size: 13px;&quot;&gt;&lt;font style=&quot;font-size: 13px;&quot;&gt;Fictional Living Room&lt;/font&gt;&lt;br style=&quot;font-size: 13px;&quot;&gt;&lt;/font&gt;&lt;/span&gt;&lt;/font&gt;" style="rhombus;whiteSpace=wrap;html=1;fillColor=#1A1A1A;rounded=1;sketch=1;labelBackgroundColor=#ffffff;shadow=1;fontSize=13;" vertex="1" parent="1">
          <mxGeometry x="250" y="685" width="170" height="80" as="geometry" />
        </mxCell>
        <mxCell id="7EeK4vwTGCE58HYFXyhD-28" style="edgeStyle=orthogonalEdgeStyle;rounded=0;orthogonalLoop=1;jettySize=auto;html=1;sketch=1;shadow=1;labelBackgroundColor=#ffffff;fontSize=13;" edge="1" parent="1" source="7EeK4vwTGCE58HYFXyhD-24" target="7EeK4vwTGCE58HYFXyhD-27">
          <mxGeometry relative="1" as="geometry" />
        </mxCell>
        <mxCell id="7EeK4vwTGCE58HYFXyhD-24" value="&lt;div style=&quot;font-size: 13px;&quot;&gt;&lt;font style=&quot;font-size: 13px;&quot;&gt;Find Open&lt;/font&gt;&lt;/div&gt;&lt;div style=&quot;font-size: 13px;&quot;&gt;&lt;font style=&quot;font-size: 13px;&quot;&gt;Door&lt;/font&gt;&lt;/div&gt;" style="rounded=1;whiteSpace=wrap;html=1;fillColor=#000066;sketch=1;shadow=1;labelBackgroundColor=#ffffff;fontSize=13;" vertex="1" parent="1">
          <mxGeometry x="135" y="970" width="120" height="60" as="geometry" />
        </mxCell>
        <mxCell id="7EeK4vwTGCE58HYFXyhD-26" value="&lt;font style=&quot;font-size: 13px;&quot;&gt;&lt;span style=&quot;font-size: 13px;&quot;&gt;&lt;font style=&quot;font-size: 13px;&quot;&gt;&lt;font style=&quot;font-size: 13px;&quot;&gt;Fictional Bathroom&lt;/font&gt;&lt;br style=&quot;font-size: 13px;&quot;&gt;&lt;/font&gt;&lt;/span&gt;&lt;/font&gt;" style="rhombus;whiteSpace=wrap;html=1;fillColor=#1A1A1A;sketch=1;shadow=1;labelBackgroundColor=#ffffff;fontSize=13;" vertex="1" parent="1">
          <mxGeometry x="510" y="960" width="170" height="80" as="geometry" />
        </mxCell>
        <mxCell id="7EeK4vwTGCE58HYFXyhD-29" style="edgeStyle=orthogonalEdgeStyle;rounded=0;orthogonalLoop=1;jettySize=auto;html=1;entryX=0;entryY=0.5;entryDx=0;entryDy=0;sketch=1;shadow=1;labelBackgroundColor=#ffffff;fontSize=13;" edge="1" parent="1" source="7EeK4vwTGCE58HYFXyhD-27" target="7EeK4vwTGCE58HYFXyhD-26">
          <mxGeometry relative="1" as="geometry" />
        </mxCell>
        <mxCell id="7EeK4vwTGCE58HYFXyhD-27" value="&lt;font style=&quot;font-size: 13px;&quot;&gt;Go Through Door&lt;br style=&quot;font-size: 13px;&quot;&gt;&lt;/font&gt;" style="rounded=1;whiteSpace=wrap;html=1;labelBackgroundColor=#ffffff;fillColor=#006633;sketch=1;shadow=1;fontSize=13;" vertex="1" parent="1">
          <mxGeometry x="330" y="970" width="120" height="60" as="geometry" />
        </mxCell>
        <mxCell id="7EeK4vwTGCE58HYFXyhD-32" style="edgeStyle=orthogonalEdgeStyle;rounded=0;sketch=1;orthogonalLoop=1;jettySize=auto;html=1;shadow=1;labelBackgroundColor=#ffffff;fontSize=13;fontColor=#000000;" edge="1" parent="1" source="7EeK4vwTGCE58HYFXyhD-31" target="7EeK4vwTGCE58HYFXyhD-21">
          <mxGeometry relative="1" as="geometry" />
        </mxCell>
        <mxCell id="7EeK4vwTGCE58HYFXyhD-31" value="" style="shape=image;html=1;verticalAlign=top;verticalLabelPosition=bottom;labelBackgroundColor=#ffffff;imageAspect=0;aspect=fixed;image=https://cdn3.iconfinder.com/data/icons/linecons-free-vector-icons-pack/32/eye-128.png;rounded=1;shadow=1;sketch=1;fillColor=#663300;gradientColor=none;fontSize=13;fontColor=#000000;" vertex="1" parent="1">
          <mxGeometry x="420" y="795" width="40" height="40" as="geometry" />
        </mxCell>
      </root>
    </mxGraphModel>
  </diagram>
</mxfile>
